<?xml version="1.0" encoding="iso-8859-1"?>
<!-- Generator: Adobe Illustrator 16.0.0, SVG Export Plug-In . SVG Version: 6.00 Build 0)  -->
<!DOCTYPE svg PUBLIC "-//W3C//DTD SVG 1.1//EN" "http://www.w3.org/Graphics/SVG/1.1/DTD/svg11.dtd">
<svg version="1.1" id="Capa_1" xmlns="http://www.w3.org/2000/svg" xmlns:xlink="http://www.w3.org/1999/xlink" x="0px" y="0px"
	 width="244.049px" height="244.049px" viewBox="0 0 244.049 244.049" style="enable-background:new 0 0 244.049 244.049;"
	 xml:space="preserve">
<g>
	<path d="M120.6,86.651c-2.101-0.86-3.546-1.812-4.341-2.846c-0.792-1.041-1.191-2.246-1.191-3.614
		c0.059-1.301,0.6-2.456,1.623-3.473c1.017-1.011,2.323-1.575,3.91-1.685V86.651z M172.807,95.488
		c0,38.567-45.572,86.356-47.505,88.378l-3.206,3.339l-3.275-3.274c-1.945-1.944-47.564-48.036-47.564-88.437
		c0-19.509,11.071-36.452,27.243-44.954L92.843,37.4h58.384l-5.669,13.14C161.73,59.036,172.807,75.991,172.807,95.488z
		 M108.247,106.787c0.187,1.761,0.949,3.147,2.282,4.164c1.33,1.011,2.87,1.72,4.599,2.125c1.738,0.393,3.597,0.677,5.583,0.842
		v8.458h3.012v-8.458c2.557-0.346,4.731-0.999,6.528-1.975c1.785-0.975,3.162-2.34,4.126-4.096c0.945-1.762,1.418-3.937,1.418-6.52
		c-0.059-2.004-0.531-3.736-1.383-5.199c-0.863-1.472-2.14-2.829-3.842-4.076c-1.714-1.241-3.984-2.589-6.848-4.037V75.046
		c1.176,0.044,2.084,0.269,2.698,0.668c0.626,0.405,1.088,0.937,1.383,1.596c0.296,0.662,0.639,1.708,1.064,3.153
		c0.177,0.842,0.544,1.513,1.111,2.021c0.585,0.508,1.253,0.795,2.033,0.86c2.086-0.562,3.127-1.768,3.127-3.621
		c0-1.548-0.645-2.843-1.934-3.895c-1.294-1.049-2.796-1.835-4.539-2.355c-1.737-0.521-3.387-0.836-4.924-0.943v-4.54h-3.136v4.54
		c-2.039,0.118-3.892,0.621-5.55,1.487c-1.658,0.877-2.985,2.06-3.972,3.54c-0.987,1.484-1.561,3.159-1.723,5.042
		c-0.044,0.375-0.062,0.884-0.062,1.546c0,1.271,0.201,2.414,0.606,3.437c0.405,1.028,1.04,2.003,1.9,2.929
		c0.866,0.925,2.004,1.865,3.407,2.802c1.404,0.94,3.201,1.974,5.382,3.106v15.096c-1.661,0-2.973-0.408-3.931-1.229
		c-0.526-0.399-0.937-1.046-1.227-1.93c-0.292-0.893-0.541-1.703-0.745-2.435c-0.207-0.733-0.543-1.348-1.017-1.833
		s-1.206-0.727-2.181-0.727c-0.919,0-1.67,0.325-2.255,0.969C108.64,104.972,108.318,105.788,108.247,106.787z M163.728,95.488
		c0-15.776-8.807-29.527-21.77-36.608l-2.73,6.357c11.089,6.083,18.607,17.865,18.607,31.407c0,19.786-16.024,35.816-35.813,35.816
		c-19.787,0-35.813-16.024-35.813-35.816c0-13.542,7.524-25.324,18.613-31.413l-2.737-6.351
		c-12.954,7.081-21.761,20.833-21.761,36.608c0,30.783,31.297,67.335,41.635,78.56C132.259,162.51,163.728,124.835,163.728,95.488z
		 M129.605,105.007c0-1.652-0.52-3.02-1.548-4.09c-1.029-1.072-2.471-2.143-4.321-3.209v13.808c1.67-0.121,3.067-0.813,4.196-2.072
		C129.038,108.179,129.605,106.701,129.605,105.007z M214.531,0v244.049H29.518V0H214.531L214.531,0z M132.46,225.963
		c0-5.752-4.67-10.434-10.433-10.434c-5.757,0-10.43,4.67-10.43,10.434c0,5.763,4.672,10.432,10.43,10.432
		C127.785,236.395,132.46,231.72,132.46,225.963z M196.374,18.157H47.676V208.81h148.697V18.157z"/>
</g>
<g>
</g>
<g>
</g>
<g>
</g>
<g>
</g>
<g>
</g>
<g>
</g>
<g>
</g>
<g>
</g>
<g>
</g>
<g>
</g>
<g>
</g>
<g>
</g>
<g>
</g>
<g>
</g>
<g>
</g>
</svg>
